<svg width="70" height="70" viewBox="0 0 70 70" fill="none" xmlns="http://www.w3.org/2000/svg">
<path d="M55.4167 9.47919H19.6875C17.8125 9.42415 15.9921 10.1147 14.6253 11.3995C13.2585 12.6843 12.4568 14.4585 12.3958 16.3334V52.5C12.4719 54.6997 13.4175 56.7796 15.025 58.2835C16.6325 59.787 18.7708 60.5917 20.9708 60.5208H55.4167C55.9945 60.5132 56.5466 60.2805 56.9552 59.8719C57.3638 59.4632 57.5966 58.9111 57.6042 58.3333V11.6667C57.5966 11.0889 57.3638 10.5369 56.9552 10.1282C56.5466 9.71964 55.9945 9.48674 55.4167 9.47919ZM53.2292 56.1458H20.9708C19.9307 56.2182 18.9044 55.8749 18.1171 55.1912C17.3297 54.5078 16.8456 53.5401 16.7708 52.5C16.8456 51.4602 17.3297 50.4922 18.1171 49.8088C18.9044 49.1254 19.9307 48.7821 20.9708 48.8542H53.2292V56.1458ZM53.2292 44.4792H20.9708C19.5025 44.4809 18.0581 44.8519 16.7708 45.5583V16.3334C16.8376 15.6214 17.18 14.9636 17.7249 14.5005C18.2698 14.0373 18.974 13.8054 19.6875 13.8542H53.2292V44.4792Z" fill="url(#paint0_linear_17_125)"/>
<path d="M25.5208 25.5208H44.4792C45.0593 25.5208 45.6158 25.2903 46.0259 24.8801C46.4363 24.4699 46.6667 23.9135 46.6667 23.3333C46.6667 22.7532 46.4363 22.1967 46.0259 21.7865C45.6158 21.3763 45.0593 21.1458 44.4792 21.1458H25.5208C24.9407 21.1458 24.3843 21.3763 23.974 21.7865C23.5638 22.1967 23.3333 22.7532 23.3333 23.3333C23.3333 23.9135 23.5638 24.4699 23.974 24.8801C24.3843 25.2903 24.9407 25.5208 25.5208 25.5208Z" fill="url(#paint1_linear_17_125)"/>
<path d="M25.5208 35.7292H44.4792C45.0593 35.7292 45.6158 35.4988 46.0259 35.0884C46.4363 34.6783 46.6667 34.1218 46.6667 33.5417C46.6667 32.9616 46.4363 32.4051 46.0259 31.995C45.6158 31.5846 45.0593 31.3542 44.4792 31.3542H25.5208C24.9407 31.3542 24.3843 31.5846 23.974 31.995C23.5638 32.4051 23.3333 32.9616 23.3333 33.5417C23.3333 34.1218 23.5638 34.6783 23.974 35.0884C24.3843 35.4988 24.9407 35.7292 25.5208 35.7292Z" fill="url(#paint2_linear_17_125)"/>
<defs>
<linearGradient id="paint0_linear_17_125" x1="20.9829" y1="35.0006" x2="48.2594" y2="35.0006" gradientUnits="userSpaceOnUse">
<stop stop-color="#27AE60"/>
<stop offset="1" stop-color="#00ED64"/>
</linearGradient>
<linearGradient id="paint1_linear_17_125" x1="27.7654" y1="23.3333" x2="41.8436" y2="23.3333" gradientUnits="userSpaceOnUse">
<stop stop-color="#27AE60"/>
<stop offset="1" stop-color="#00ED64"/>
</linearGradient>
<linearGradient id="paint2_linear_17_125" x1="27.7654" y1="33.5417" x2="41.8436" y2="33.5417" gradientUnits="userSpaceOnUse">
<stop stop-color="#27AE60"/>
<stop offset="1" stop-color="#00ED64"/>
</linearGradient>
</defs>
</svg>
