<svg width="30" height="30" viewBox="0 0 30 30" fill="none" xmlns="http://www.w3.org/2000/svg">
<g clip-path="url(#clip0_56_81)">
<path d="M27.3529 25.5882H2.64706C1.23529 25.5882 0 24.3529 0 22.9412V7.05883C0 5.64706 1.23529 4.41177 2.64706 4.41177H27.3529C28.7647 4.41177 30 5.64706 30 7.05883V22.9412C30 24.3529 28.7647 25.5882 27.3529 25.5882ZM2.64706 6.17647C2.11765 6.17647 1.76471 6.52941 1.76471 7.05883V22.9412C1.76471 23.4706 2.11765 23.8235 2.64706 23.8235H27.3529C27.8824 23.8235 28.2353 23.4706 28.2353 22.9412V7.05883C28.2353 6.52941 27.8824 6.17647 27.3529 6.17647H2.64706Z" fill="white"/>
<path d="M29.1176 8.47059H0.882355V10.2353H29.1176V8.47059Z" fill="white"/>
<path d="M29.1176 11.6471H0.882355V13.4118H29.1176V11.6471Z" fill="white"/>
<path d="M9.17664 17.4706H4.58841C4.059 17.4706 3.70605 17.1176 3.70605 16.5882C3.70605 16.0588 4.059 15.7059 4.58841 15.7059H9.17664C9.70606 15.7059 10.059 16.0588 10.059 16.5882C10.059 17.1176 9.70606 17.4706 9.17664 17.4706Z" fill="white"/>
<path d="M15.3531 21.1765H4.58841C4.059 21.1765 3.70605 20.8235 3.70605 20.2941C3.70605 19.7647 4.059 19.4118 4.58841 19.4118H15.3531C15.8825 19.4118 16.2355 19.7647 16.2355 20.2941C16.2355 20.8235 15.7061 21.1765 15.3531 21.1765Z" fill="white"/>
</g>
<defs>
<clipPath id="clip0_56_81">
<rect width="30" height="30" fill="white"/>
</clipPath>
</defs>
</svg>
