<svg width="65" height="67" viewBox="0 0 65 67" fill="none" xmlns="http://www.w3.org/2000/svg">
<path d="M30.9992 0.999832L31.0121 1.00015C37.3668 1.15426 43.4572 3.5741 48.1848 7.82319C52.8476 12.014 55.882 17.7121 56.7595 23.9141L60.4256 26.099C61.3811 26.6181 62.1788 27.3854 62.7346 28.3201C63.2923 29.2579 63.5855 30.3291 63.5833 31.4202M30.9992 0.999832L63.0833 31.4192M30.9992 0.999832L30.9862 1.00019C24.1135 1.19025 17.5752 4.00787 12.7173 8.87304C7.97414 13.6232 5.18526 19.9722 4.88859 26.6667H1.83334H1.33334V27.1667V30.0833V30.5833H1.83334H8.25001H8.75001V30.0833V28.625V28.6177L8.7498 28.6105C8.57279 22.5191 10.8165 16.6056 14.9898 12.1649C19.1597 7.72765 24.9165 5.12193 31.0018 4.91689C36.3258 5.05901 41.4308 7.06804 45.4238 10.593C49.3247 14.0366 51.9217 18.7127 52.7867 23.8359C52.2258 24.1678 51.7591 24.6382 51.4316 25.2024C51.0957 25.7811 50.9181 26.4381 50.9167 27.1073V27.1083L50.9167 41.0121L50.9167 41.0156C50.9206 41.5634 51.0434 42.1038 51.2767 42.5994C51.462 42.993 51.7134 43.3508 52.0192 43.6578C50.9032 47.2315 48.9292 50.4796 46.2678 53.1172C43.6414 55.7201 40.4267 57.6482 36.8988 58.7402C36.5548 57.9565 36.0086 57.2747 35.3124 56.7669C34.4838 56.1625 33.4851 55.8357 32.4595 55.8333H32.4583H29.5417C28.2487 55.8333 27.0088 56.3469 26.0945 57.2612C25.1803 58.1754 24.6667 59.4154 24.6667 60.7083C24.6667 62.0013 25.1803 63.2412 26.0945 64.1555C27.0088 65.0697 28.2487 65.5833 29.5417 65.5833L32.4583 65.5833C33.4189 65.5831 34.3578 65.2992 35.1575 64.7673C35.8863 64.2825 36.4698 63.6112 36.8486 62.8255C41.3135 61.6742 45.4076 59.3911 48.7349 56.1951C52.0513 53.0095 54.492 49.0261 55.8249 44.6283C56.1122 44.545 56.3887 44.4271 56.6484 44.2771L56.6485 44.2772L56.6545 44.2736L60.3894 42.0454C61.3534 41.5292 62.1595 40.7613 62.7219 39.8233C63.2865 38.8818 63.5843 37.8045 63.5833 36.7067M30.9992 0.999832L63.0833 36.7071M63.5833 31.4202L63.0833 31.4192M63.5833 31.4202V31.4192H63.0833M63.5833 31.4202V36.7067M63.0833 31.4192V36.7071M63.5833 36.7067L63.0833 36.7071M63.5833 36.7067V36.7071H63.0833M58.4836 38.6244L58.4693 38.6317L58.4555 38.6399L54.8333 40.7961V27.324L58.454 29.4825L58.4552 29.4832L58.5123 29.5175L58.5233 29.5241L58.5345 29.5301C58.8769 29.7124 59.1631 29.9845 59.3626 30.3172C59.562 30.6499 59.6672 31.0306 59.6667 31.4185V31.4192V36.7031C59.6644 37.1007 59.553 37.4901 59.3446 37.8288C59.136 38.1679 58.8381 38.4431 58.4836 38.6244ZM28.5833 60.7083C28.5833 60.4542 28.6843 60.2104 28.864 60.0307C29.0438 59.851 29.2875 59.75 29.5417 59.75H32.4583C32.7125 59.75 32.9563 59.851 33.136 60.0307C33.3157 60.2104 33.4167 60.4542 33.4167 60.7083C33.4167 60.9625 33.3157 61.2063 33.136 61.386C32.9563 61.5657 32.7125 61.6667 32.4583 61.6667H29.5417C29.2875 61.6667 29.0438 61.5657 28.864 61.386C28.6843 61.2063 28.5833 60.9625 28.5833 60.7083Z" fill="url(#paint0_linear_15_145)" stroke="url(#paint1_linear_15_145)"/>
<defs>
<linearGradient id="paint0_linear_15_145" x1="13.4674" y1="33.2917" x2="50.4227" y2="33.2917" gradientUnits="userSpaceOnUse">
<stop stop-color="#27AE60"/>
<stop offset="1" stop-color="#00ED64"/>
</linearGradient>
<linearGradient id="paint1_linear_15_145" x1="13.4674" y1="33.2917" x2="50.4227" y2="33.2917" gradientUnits="userSpaceOnUse">
<stop stop-color="#27AE60"/>
<stop offset="1" stop-color="#00ED64"/>
</linearGradient>
</defs>
</svg>
