<svg width="30" height="30" viewBox="0 0 30 30" fill="none" xmlns="http://www.w3.org/2000/svg">
<path fill-rule="evenodd" clip-rule="evenodd" d="M25.87 2.26215C24.3499 0.678741 21.6032 0 18.0882 0H7.88889C7.16989 0 6.5586 0.478105 6.44577 1.12591L2.19844 25.7462C2.11434 26.2318 2.52567 26.6714 3.06415 26.6714H9.36074L10.9423 17.5029L10.8931 17.7897C11.0059 17.1419 11.6131 16.6638 12.3311 16.6638H15.323C21.2021 16.6638 25.8043 14.4813 27.149 8.1683C27.189 7.9808 27.2536 7.62177 27.2536 7.62177C27.6351 5.28555 27.2505 3.70026 25.87 2.26215ZM28.8475 8.81752C27.3849 15.033 22.7222 18.3227 15.323 18.3227H12.6398L10.6387 30H14.9907C15.6194 30 16.1537 29.5819 16.2522 29.0147L16.3035 28.7672L17.3046 22.9717L17.3692 22.652C17.4666 22.0848 18.0021 21.6667 18.6298 21.6667H19.4246C24.5663 21.6667 28.5931 19.757 29.7696 14.2352C30.2414 12.019 30.0147 10.1609 28.8475 8.81752Z" fill="#022B87"/>
</svg>
