<svg width="34" height="34" viewBox="0 0 34 34" fill="none" xmlns="http://www.w3.org/2000/svg">
<path d="M25.3236 24.8837C24.7497 24.885 24.1811 24.7726 23.6508 24.5531C23.1205 24.3335 22.639 24.0111 22.2339 23.6045L17.7714 19.142C17.6134 18.9919 17.4038 18.9082 17.1859 18.9082C16.968 18.9082 16.7585 18.9919 16.6005 19.142L12.121 23.6215C11.7161 24.0283 11.2345 24.3508 10.7042 24.5704C10.1738 24.79 9.60525 24.9022 9.03125 24.9007H8.1515L13.804 30.5532C15.5678 32.317 18.4301 32.317 20.1939 30.5532L25.8613 24.8837H25.3236ZM9.03125 9.09925C10.2 9.09925 11.2965 9.554 12.121 10.3785L16.6005 14.858C16.6775 14.9351 16.7689 14.9963 16.8695 15.038C16.9702 15.0797 17.0781 15.1012 17.187 15.1012C17.296 15.1012 17.4038 15.0797 17.5045 15.038C17.6051 14.9963 17.6965 14.9351 17.7735 14.858L22.236 10.3955C22.6407 9.98894 23.1219 9.66658 23.6519 9.44701C24.1818 9.22744 24.75 9.11503 25.3236 9.11625H25.8613L20.1939 3.44887C19.3463 2.6019 18.1972 2.12613 16.9989 2.12613C15.8007 2.12613 14.6516 2.6019 13.804 3.44887L8.1515 9.10137L9.03125 9.09925Z" fill="#32BCAD"/>
<path d="M30.5511 13.804L27.1256 10.3785C27.0487 10.4101 26.9665 10.4267 26.8834 10.4274H25.3257C24.5204 10.4274 23.732 10.7546 23.1646 11.3241L18.7021 15.7866C18.5037 15.9861 18.2677 16.1444 18.0079 16.2525C17.7481 16.3605 17.4695 16.4161 17.1881 16.4161C16.9067 16.4161 16.628 16.3605 16.3682 16.2525C16.1084 16.1444 15.8725 15.9861 15.674 15.7866L11.1945 11.305C10.6198 10.7327 9.84234 10.4104 9.03125 10.4082H7.11875C7.03946 10.4076 6.96096 10.3925 6.88712 10.3636L3.44887 13.804C1.68512 15.5677 1.68512 18.4301 3.44887 20.196L6.88712 23.6342C6.96015 23.6049 7.03792 23.589 7.11662 23.5875H9.03125C9.83875 23.5875 10.625 23.2624 11.1945 22.6929L15.6719 18.2112C16.0804 17.8223 16.6229 17.6053 17.187 17.6053C17.7511 17.6053 18.2936 17.8223 18.7021 18.2112L23.1646 22.6738C23.732 23.2433 24.5204 23.5684 25.3257 23.5684H26.8834C26.9684 23.5684 27.0512 23.5896 27.1256 23.6194L30.5511 20.1939C32.3149 18.4301 32.3149 15.5677 30.5511 13.804Z" fill="#32BCAD"/>
</svg>
