<svg width="40" height="48" viewBox="0 0 40 48" fill="none" xmlns="http://www.w3.org/2000/svg">
<path d="M39.4682 13.2591L26.7409 0.531819C26.5719 0.363029 26.3714 0.229185 26.1506 0.137934C25.9299 0.0466833 25.6934 -0.000187247 25.4545 5.62179e-07H3.63636C2.67194 5.62179e-07 1.74702 0.383116 1.06507 1.06507C0.383116 1.74702 0 2.67194 0 3.63636V43.6364C0 44.6008 0.383116 45.5257 1.06507 46.2077C1.74702 46.8896 2.67194 47.2727 3.63636 47.2727H36.3636C37.3281 47.2727 38.253 46.8896 38.9349 46.2077C39.6169 45.5257 40 44.6008 40 43.6364V14.5455C40.0002 14.3066 39.9533 14.0701 39.8621 13.8494C39.7708 13.6286 39.637 13.4281 39.4682 13.2591ZM27.2727 6.20682L33.7932 12.7273H27.2727V6.20682ZM36.3636 43.6364H3.63636V3.63636H23.6364V14.5455C23.6364 15.0277 23.8279 15.4901 24.1689 15.8311C24.5099 16.1721 24.9723 16.3636 25.4545 16.3636H36.3636V43.6364ZM26.7409 25.9864C26.9098 26.1553 27.0438 26.3558 27.1353 26.5766C27.2267 26.7973 27.2737 27.0338 27.2737 27.2727C27.2737 27.5116 27.2267 27.7482 27.1353 27.9689C27.0438 28.1896 26.9098 28.3902 26.7409 28.5591C26.572 28.728 26.3714 28.862 26.1507 28.9534C25.93 29.0449 25.6934 29.0919 25.4545 29.0919C25.2156 29.0919 24.9791 29.0449 24.7584 28.9534C24.5377 28.862 24.3371 28.728 24.1682 28.5591L21.8182 26.2068V36.3636C21.8182 36.8458 21.6266 37.3083 21.2857 37.6493C20.9447 37.9903 20.4822 38.1818 20 38.1818C19.5178 38.1818 19.0553 37.9903 18.7144 37.6493C18.3734 37.3083 18.1818 36.8458 18.1818 36.3636V26.2068L15.8318 28.5591C15.6629 28.728 15.4623 28.862 15.2416 28.9534C15.0209 29.0449 14.7844 29.0919 14.5455 29.0919C14.3066 29.0919 14.07 29.0449 13.8493 28.9534C13.6286 28.862 13.428 28.728 13.2591 28.5591C13.0902 28.3902 12.9562 28.1896 12.8647 27.9689C12.7733 27.7482 12.7263 27.5116 12.7263 27.2727C12.7263 27.0338 12.7733 26.7973 12.8647 26.5766C12.9562 26.3558 13.0902 26.1553 13.2591 25.9864L18.7136 20.5318C18.8825 20.3628 19.083 20.2287 19.3037 20.1372C19.5245 20.0457 19.7611 19.9986 20 19.9986C20.2389 19.9986 20.4755 20.0457 20.6963 20.1372C20.917 20.2287 21.1175 20.3628 21.2864 20.5318L26.7409 25.9864Z" fill="url(#paint0_linear_109_77)"/>
<defs>
<linearGradient id="paint0_linear_109_77" x1="7.59777" y1="23.6364" x2="31.7318" y2="23.6364" gradientUnits="userSpaceOnUse">
<stop stop-color="#27AE60"/>
<stop offset="1" stop-color="#00ED64"/>
</linearGradient>
</defs>
</svg>
