<svg width="67" height="96" viewBox="0 0 67 96" fill="none" xmlns="http://www.w3.org/2000/svg">
<path d="M14.912 25.072V70H3.968V25.072H14.912Z" fill="#27AE60"/>
<path d="M50.811 62.064H34.043L31.355 70H19.899L36.155 25.072H48.827L65.083 70H53.499L50.811 62.064ZM47.995 53.616L42.427 37.168L36.923 53.616H47.995Z" fill="#987039"/>
<path d="M22 5C13 7 10.9 13.17 8.82 18.34L10.71 19L11.66 16.7C12.14 16.87 12.64 17 13 17C24 17 27 0 27 0C26 2 19 2.25 14 3.25C9 4.25 7 8.5 7 10.5C7 12.5 8.75 14.25 8.75 14.25C12 5 22 5 22 5Z" fill="#27AE60"/>
</svg>
