<svg width="359" height="96" viewBox="0 0 359 96" fill="none" xmlns="http://www.w3.org/2000/svg">
<path d="M14.912 25.072V70H3.968V25.072H14.912ZM44.603 33.904C48.7843 33.904 52.1123 35.2693 54.587 38C57.1043 40.688 58.363 44.4 58.363 49.136V70H47.483V50.608C47.483 48.2187 46.8643 46.3627 45.627 45.04C44.3897 43.7173 42.7257 43.056 40.635 43.056C38.5443 43.056 36.8803 43.7173 35.643 45.04C34.4057 46.3627 33.787 48.2187 33.787 50.608V70H22.843V34.288H33.787V39.024C34.8963 37.4453 36.3897 36.208 38.267 35.312C40.1443 34.3733 42.2563 33.904 44.603 33.904ZM80.496 70.512C77.3813 70.512 74.608 69.9787 72.176 68.912C69.744 67.8453 67.824 66.3947 66.416 64.56C65.008 62.6827 64.2187 60.592 64.048 58.288H74.864C74.992 59.5253 75.568 60.528 76.592 61.296C77.616 62.064 78.8747 62.448 80.368 62.448C81.7333 62.448 82.7787 62.192 83.504 61.68C84.272 61.1253 84.656 60.4213 84.656 59.568C84.656 58.544 84.1227 57.7973 83.056 57.328C81.9893 56.816 80.2613 56.2613 77.872 55.664C75.312 55.0667 73.1787 54.448 71.472 53.808C69.7653 53.1253 68.2933 52.08 67.056 50.672C65.8187 49.2213 65.2 47.28 65.2 44.848C65.2 42.8 65.7547 40.944 66.864 39.28C68.016 37.5733 69.68 36.2293 71.856 35.248C74.0747 34.2667 76.6987 33.776 79.728 33.776C84.208 33.776 87.728 34.8853 90.288 37.104C92.8907 39.3227 94.384 42.2667 94.768 45.936H84.656C84.4853 44.6987 83.9307 43.7173 82.992 42.992C82.096 42.2667 80.9013 41.904 79.408 41.904C78.128 41.904 77.1467 42.16 76.464 42.672C75.7813 43.1413 75.44 43.8027 75.44 44.656C75.44 45.68 75.9733 46.448 77.04 46.96C78.1493 47.472 79.856 47.984 82.16 48.496C84.8053 49.1787 86.96 49.8613 88.624 50.544C90.288 51.184 91.7387 52.2507 92.976 53.744C94.256 55.1947 94.9173 57.1573 94.96 59.632C94.96 61.7227 94.3627 63.6 93.168 65.264C92.016 66.8853 90.3307 68.1653 88.112 69.104C85.936 70.0427 83.3973 70.512 80.496 70.512ZM107.16 30.576C105.24 30.576 103.661 30.0213 102.424 28.912C101.229 27.76 100.632 26.352 100.632 24.688C100.632 22.9813 101.229 21.5733 102.424 20.464C103.661 19.312 105.24 18.736 107.16 18.736C109.037 18.736 110.573 19.312 111.768 20.464C113.005 21.5733 113.624 22.9813 113.624 24.688C113.624 26.352 113.005 27.76 111.768 28.912C110.573 30.0213 109.037 30.576 107.16 30.576ZM112.6 34.288V70H101.656V34.288H112.6ZM118.355 52.08C118.355 48.4107 119.037 45.1893 120.403 42.416C121.811 39.6427 123.709 37.5093 126.099 36.016C128.488 34.5227 131.155 33.776 134.099 33.776C136.445 33.776 138.579 34.2667 140.499 35.248C142.461 36.2293 143.997 37.552 145.107 39.216V22.64H156.051V70H145.107V64.88C144.083 66.5867 142.611 67.952 140.691 68.976C138.813 70 136.616 70.512 134.099 70.512C131.155 70.512 128.488 69.7653 126.099 68.272C123.709 66.736 121.811 64.5813 120.403 61.808C119.037 58.992 118.355 55.7493 118.355 52.08ZM145.107 52.144C145.107 49.4133 144.339 47.2587 142.803 45.68C141.309 44.1013 139.475 43.312 137.299 43.312C135.123 43.312 133.267 44.1013 131.731 45.68C130.237 47.216 129.491 49.3493 129.491 52.08C129.491 54.8107 130.237 56.9867 131.731 58.608C133.267 60.1867 135.123 60.976 137.299 60.976C139.475 60.976 141.309 60.1867 142.803 58.608C144.339 57.0293 145.107 54.8747 145.107 52.144ZM197.632 51.568C197.632 52.592 197.568 53.6587 197.44 54.768H172.672C172.843 56.9867 173.547 58.6933 174.784 59.888C176.064 61.04 177.621 61.616 179.456 61.616C182.187 61.616 184.085 60.464 185.152 58.16H196.8C196.203 60.5067 195.115 62.6187 193.536 64.496C192 66.3733 190.059 67.8453 187.712 68.912C185.365 69.9787 182.741 70.512 179.84 70.512C176.341 70.512 173.227 69.7653 170.496 68.272C167.765 66.7787 165.632 64.6453 164.096 61.872C162.56 59.0987 161.792 55.856 161.792 52.144C161.792 48.432 162.539 45.1893 164.032 42.416C165.568 39.6427 167.701 37.5093 170.432 36.016C173.163 34.5227 176.299 33.776 179.84 33.776C183.296 33.776 186.368 34.5013 189.056 35.952C191.744 37.4027 193.835 39.472 195.328 42.16C196.864 44.848 197.632 47.984 197.632 51.568ZM186.432 48.688C186.432 46.8107 185.792 45.3173 184.512 44.208C183.232 43.0987 181.632 42.544 179.712 42.544C177.877 42.544 176.32 43.0773 175.04 44.144C173.803 45.2107 173.035 46.7253 172.736 48.688H186.432Z" fill="#27AE60"/>
<path d="M231.374 62.064H214.606L211.918 70H200.462L216.718 25.072H229.39L245.646 70H234.062L231.374 62.064ZM228.558 53.616L222.99 37.168L217.486 53.616H228.558ZM264.161 33.776C266.678 33.776 268.876 34.288 270.753 35.312C272.673 36.336 274.145 37.68 275.169 39.344V34.288H286.113V69.936C286.113 73.2213 285.452 76.1867 284.129 78.832C282.849 81.52 280.865 83.6533 278.177 85.232C275.532 86.8107 272.225 87.6 268.257 87.6C262.966 87.6 258.678 86.3413 255.393 83.824C252.108 81.3493 250.23 77.9787 249.761 73.712H260.577C260.918 75.0773 261.729 76.144 263.009 76.912C264.289 77.7227 265.868 78.128 267.745 78.128C270.006 78.128 271.798 77.4667 273.121 76.144C274.486 74.864 275.169 72.7947 275.169 69.936V64.88C274.102 66.544 272.63 67.9093 270.753 68.976C268.876 70 266.678 70.512 264.161 70.512C261.217 70.512 258.55 69.7653 256.161 68.272C253.772 66.736 251.873 64.5813 250.465 61.808C249.1 58.992 248.417 55.7493 248.417 52.08C248.417 48.4107 249.1 45.1893 250.465 42.416C251.873 39.6427 253.772 37.5093 256.161 36.016C258.55 34.5227 261.217 33.776 264.161 33.776ZM275.169 52.144C275.169 49.4133 274.401 47.2587 272.865 45.68C271.372 44.1013 269.537 43.312 267.361 43.312C265.185 43.312 263.329 44.1013 261.793 45.68C260.3 47.216 259.553 49.3493 259.553 52.08C259.553 54.8107 260.3 56.9867 261.793 58.608C263.329 60.1867 265.185 60.976 267.361 60.976C269.537 60.976 271.372 60.1867 272.865 58.608C274.401 57.0293 275.169 54.8747 275.169 52.144ZM304.975 40.24C306.255 38.2773 307.855 36.7413 309.775 35.632C311.695 34.48 313.828 33.904 316.175 33.904V45.488H313.167C310.436 45.488 308.388 46.0853 307.023 47.28C305.657 48.432 304.975 50.48 304.975 53.424V70H294.031V34.288H304.975V40.24ZM337.662 70.512C334.163 70.512 331.006 69.7653 328.19 68.272C325.416 66.7787 323.219 64.6453 321.598 61.872C320.019 59.0987 319.23 55.856 319.23 52.144C319.23 48.4747 320.04 45.2533 321.661 42.48C323.283 39.664 325.502 37.5093 328.318 36.016C331.134 34.5227 334.291 33.776 337.79 33.776C341.288 33.776 344.446 34.5227 347.262 36.016C350.078 37.5093 352.296 39.664 353.918 42.48C355.539 45.2533 356.35 48.4747 356.35 52.144C356.35 55.8133 355.518 59.056 353.854 61.872C352.232 64.6453 349.992 66.7787 347.134 68.272C344.318 69.7653 341.16 70.512 337.662 70.512ZM337.662 61.04C339.752 61.04 341.523 60.272 342.974 58.736C344.467 57.2 345.214 55.0027 345.214 52.144C345.214 49.2853 344.488 47.088 343.038 45.552C341.63 44.016 339.88 43.248 337.79 43.248C335.656 43.248 333.886 44.016 332.478 45.552C331.07 47.0453 330.366 49.2427 330.366 52.144C330.366 55.0027 331.048 57.2 332.414 58.736C333.822 60.272 335.571 61.04 337.662 61.04Z" fill="#987039"/>
<path d="M22 5C13 7 10.9 13.17 8.82 18.34L10.71 19L11.66 16.7C12.14 16.87 12.64 17 13 17C24 17 27 0 27 0C26 2 19 2.25 14 3.25C9 4.25 7 8.5 7 10.5C7 12.5 8.75 14.25 8.75 14.25C12 5 22 5 22 5Z" fill="#27AE60"/>
</svg>
