<svg width="1863" height="529" viewBox="0 0 1863 529" fill="none" xmlns="http://www.w3.org/2000/svg">
<path d="M35.0335 501.161V222.749H106.738V248.615H66.2471V475.295H106.738V501.161H35.0335ZM257.813 454.668V482.389H115.823V454.668H257.813ZM338.602 222.749V501.161H266.898V475.295H307.389V248.615H266.898V222.749H338.602ZM458.355 361.901C458.355 389.331 454.753 414.542 447.55 437.534C440.347 460.525 429.833 481.735 416.009 501.161H386.105C391.489 493.958 396.509 485.118 401.166 474.641C405.823 464.163 409.897 452.704 413.39 440.262C416.882 427.747 419.61 414.796 421.575 401.409C423.539 388.021 424.522 374.852 424.522 361.901C424.522 344.657 422.812 327.158 419.392 309.405C415.972 291.652 411.352 275.172 405.532 259.965C399.711 244.758 393.235 232.353 386.105 222.749H416.009C429.833 242.176 440.347 263.385 447.55 286.377C454.753 309.368 458.355 334.543 458.355 361.901Z" fill="#2196F3"/>
<path d="M156.959 278.085C156.959 263.837 158.84 250.748 162.601 238.818C166.4 226.85 172.043 215.794 179.527 205.649H198.962C196.074 209.411 193.376 214.027 190.869 219.498C188.361 224.931 186.176 230.896 184.315 237.393C182.491 243.852 181.047 250.558 179.983 257.511C178.958 264.464 178.445 271.322 178.445 278.085C178.445 287.09 179.338 296.209 181.123 305.441C182.947 314.674 185.398 323.223 188.475 331.087C191.591 338.99 195.086 345.449 198.962 350.464H179.527C172.043 340.32 166.4 329.283 162.601 317.352C158.84 305.384 156.959 292.295 156.959 278.085Z" fill="#2196F3"/>
<path d="M227.348 107.412C227.348 121.622 225.449 134.711 221.649 146.679C217.888 158.609 212.265 169.647 204.78 179.791H185.346C188.271 176.03 190.969 171.433 193.439 165.999C195.946 160.566 198.112 154.601 199.936 148.104C201.797 141.607 203.241 134.882 204.267 127.929C205.331 120.976 205.863 114.137 205.863 107.412C205.863 98.4075 204.951 89.2889 203.127 80.0563C201.341 70.8237 198.891 62.256 195.775 54.3532C192.698 46.4504 189.221 39.9913 185.346 34.9761H204.78C212.265 45.1206 217.888 56.1769 221.649 68.1451C225.449 80.0753 227.348 93.1643 227.348 107.412Z" fill="#2196F3"/>
<path d="M603.84 500.727V258.5H644.322V291.35H644.986C648.304 279.847 654.166 270.998 662.572 264.805C671.199 258.389 681.818 255.182 694.427 255.182C712.345 255.182 726.724 261.486 737.563 274.095C748.624 286.705 754.154 303.627 754.154 324.864V374.305C754.154 395.762 748.624 412.795 737.563 425.405C726.724 438.014 712.345 444.318 694.427 444.318C682.039 444.318 671.531 441.221 662.904 435.027C654.277 428.612 648.304 419.653 644.986 408.15H644.322L645.318 449.627V500.727H603.84ZM679.163 408.482C689.781 408.482 697.966 405.385 703.718 399.191C709.69 392.997 712.677 384.148 712.677 372.645V326.855C712.677 315.351 709.69 306.503 703.718 300.309C697.966 294.115 689.781 291.018 679.163 291.018C668.545 291.018 660.249 294.226 654.277 300.641C648.304 307.056 645.318 316.126 645.318 327.85V371.65C645.318 383.374 648.304 392.444 654.277 398.859C660.249 405.274 668.545 408.482 679.163 408.482ZM858.879 444.318C843.394 444.318 829.9 441.332 818.397 435.359C806.894 429.386 797.935 421.091 791.52 410.473C785.326 399.633 782.229 387.024 782.229 372.645V326.855C782.229 312.476 785.326 299.977 791.52 289.359C797.935 278.52 806.894 270.114 818.397 264.141C829.9 258.168 843.394 255.182 858.879 255.182C874.143 255.182 887.415 258.168 898.697 264.141C910.2 270.114 919.049 278.52 925.243 289.359C931.658 299.977 934.865 312.476 934.865 326.855V359.705H822.379V372.645C822.379 398.527 834.656 411.468 859.211 411.468C878.235 411.468 889.406 405.164 892.724 392.555H933.538C930.441 408.261 922.035 420.87 908.32 430.382C894.826 439.673 878.346 444.318 858.879 444.318ZM822.379 326.855V333.823L894.715 333.491V326.523C894.715 313.914 891.729 304.291 885.756 297.655C879.783 290.797 870.824 287.368 858.879 287.368C846.712 287.368 837.532 290.797 831.338 297.655C825.365 304.512 822.379 314.245 822.379 326.855ZM1039.26 444.318C1029.75 444.318 1022.11 441.553 1016.36 436.023C1010.83 430.492 1008.07 422.971 1008.07 413.459C1008.07 403.947 1010.83 396.426 1016.36 390.895C1022.11 385.144 1029.75 382.268 1039.26 382.268C1048.77 382.268 1056.29 385.144 1061.82 390.895C1067.57 396.426 1070.45 403.947 1070.45 413.459C1070.45 422.971 1067.57 430.492 1061.82 436.023C1056.29 441.553 1048.77 444.318 1039.26 444.318ZM1249.5 441C1231.36 441 1216.76 435.58 1205.7 424.741C1194.86 413.902 1189.44 399.633 1189.44 381.936V236.268H1129.38V198.773H1230.92V380.941C1230.92 387.798 1232.8 393.329 1236.56 397.532C1240.54 401.514 1245.85 403.505 1252.49 403.505H1305.91V441H1249.5ZM1400.68 444.318C1377.45 444.318 1359.2 437.903 1345.93 425.073C1332.66 412.021 1326.02 394.324 1326.02 371.982V258.5H1367.5V371.65C1367.5 383.374 1370.37 392.444 1376.13 398.859C1381.88 405.053 1390.06 408.15 1400.68 408.15C1411.08 408.15 1419.15 405.053 1424.9 398.859C1430.88 392.444 1433.86 383.374 1433.86 371.65V258.5H1475.34V371.982C1475.34 394.324 1468.59 412.021 1455.1 425.073C1441.61 437.903 1423.47 444.318 1400.68 444.318ZM1582.39 444.318C1566.9 444.318 1553.3 441.442 1541.57 435.691C1530.07 429.718 1521.11 421.423 1514.7 410.805C1508.28 399.965 1505.07 387.245 1505.07 372.645V326.855C1505.07 312.255 1508.28 299.645 1514.7 289.027C1521.11 278.188 1530.07 269.892 1541.57 264.141C1553.3 258.168 1566.9 255.182 1582.39 255.182C1605.39 255.182 1623.75 261.155 1637.47 273.1C1651.18 284.824 1658.37 300.862 1659.04 321.214H1618.56C1617.89 311.701 1614.24 304.401 1607.61 299.314C1601.19 294.005 1592.78 291.35 1582.39 291.35C1571.33 291.35 1562.59 294.447 1556.17 300.641C1549.76 306.614 1546.55 315.241 1546.55 326.523V372.645C1546.55 383.927 1549.76 392.665 1556.17 398.859C1562.59 405.053 1571.33 408.15 1582.39 408.15C1593.01 408.15 1601.52 405.606 1607.94 400.518C1614.35 395.209 1617.89 387.798 1618.56 378.286H1659.04C1658.37 398.638 1651.18 414.786 1637.47 426.732C1623.75 438.456 1605.39 444.318 1582.39 444.318ZM1755.14 443.986C1741.2 443.986 1728.92 441.885 1718.3 437.682C1707.69 433.258 1699.39 427.064 1693.42 419.1C1687.67 411.136 1684.79 401.735 1684.79 390.895H1726.6C1726.6 397.311 1729.14 402.288 1734.23 405.827C1739.54 409.145 1746.62 410.805 1755.47 410.805H1769.74C1780.13 410.805 1787.87 408.924 1792.96 405.164C1798.05 401.403 1800.59 396.205 1800.59 389.568C1800.59 376.959 1791.19 369.217 1772.39 366.341L1746.84 363.023C1708.57 357.492 1689.44 339.242 1689.44 308.273C1689.44 291.018 1695.19 277.967 1706.69 269.118C1718.41 260.048 1735.34 255.514 1757.46 255.514H1770.07C1790.64 255.514 1807.12 260.159 1819.51 269.45C1832.12 278.52 1838.42 290.576 1838.42 305.618H1796.61C1796.61 300.309 1794.29 296.217 1789.64 293.341C1785 290.244 1778.36 288.695 1769.74 288.695H1757.13C1738.99 288.695 1729.92 295.221 1729.92 308.273C1729.92 319.555 1737.99 326.412 1754.14 328.845L1780.02 332.827C1800.59 335.703 1815.86 341.676 1825.81 350.745C1835.99 359.815 1841.08 372.424 1841.08 388.573C1841.08 406.048 1834.99 419.653 1822.83 429.386C1810.88 439.12 1793.18 443.986 1769.74 443.986H1755.14Z" fill="white"/>
</svg>
